<svg version="1.1" id="Layer_1" xmlns="http://www.w3.org/2000/svg" x="0" y="0" viewBox="0 0 670 128" xml:space="preserve"><style>.st0{fill:#202928}</style><path class="st0" d="M-.29 87.95V1.55h17.57v72.72h38.74v13.68H-.29zM74.3 25.17c-4.75 0-8.64-4.03-8.64-8.78 0-4.75 3.89-8.64 8.64-8.64 4.61 0 8.64 3.89 8.64 8.64 0 4.74-4.03 8.78-8.64 8.78zm-8.06 62.78v-49.1l16.13-1.73v50.83H66.24zM135.93 87.95V61.02c0-7.92-2.88-11.23-8.64-11.23-5.9 0-11.81 5.47-11.81 11.95v26.21H99.35v-48.1l14.69-1.58.86 9.22c3.02-6.19 11.52-10.51 18.58-10.51 13.25 0 18.58 9.22 18.58 21.46v29.52h-16.13zM192.95 89.82c-16.27 0-26.93-11.38-26.93-26.64 0-15.98 12.1-26.21 25.78-26.21 12.82 0 22.9 8.5 22.9 20.16 0 2.3-.43 5.33-.86 7.06h-31.97c0 7.2 3.46 14.4 15.55 14.4 5.18 0 10.51-2.02 14.4-5.04l4.03 7.92c-5.62 5.04-13.68 8.35-22.9 8.35zm-1.01-43.2c-4.32 0-8.21 2.59-9.5 9.5h17.42s.14-.86.14-2.02c.01-4.17-2.73-7.48-8.06-7.48zM269.85 89.24c-7.2 0-11.09-3.02-12.24-8.35-5.04 5.47-10.8 8.35-17.57 8.35-7.49 0-13.39-5.33-13.39-12.96 0-11.81 13.39-18.29 30.38-19.73v-1.58c0-5.76-2.74-7.49-8.5-7.49-5.33 0-13.25 3.02-18.43 6.48V42.73c4.18-2.59 14.98-5.76 21.74-5.76 11.81 0 21.17 3.89 21.17 17.57v21.89c0 3.74 1.3 4.75 3.17 4.75 1.15 0 2.16-.29 2.88-.58v6.05c-1.44 1.3-5.61 2.59-9.21 2.59zm-12.82-24.47c-10.37 1.44-15.98 4.32-15.98 9.5 0 3.17 2.45 4.75 5.62 4.75 2.74 0 6.34-1.58 10.37-5.9v-8.35zM348.32 87.95h-30.38V1.55h30.38c34.56 0 49.1 19.44 49.1 43.2.01 23.76-14.54 43.2-49.1 43.2zm-.86-72.29h-11.95v58.17h11.95c23.62 0 31.97-11.81 31.97-29.09s-8.35-29.08-31.97-29.08zM419.32 25.17c-4.75 0-8.64-4.03-8.64-8.78 0-4.75 3.89-8.64 8.64-8.64 4.61 0 8.64 3.89 8.64 8.64 0 4.74-4.04 8.78-8.64 8.78zm-8.07 62.78v-49.1l16.13-1.73v50.83h-16.13zM483.4 38.85h10.51v10.37h-7.06c.86 1.44 2.02 4.9 2.02 7.49 0 11.38-10.37 19.01-21.02 19.87-7.92.72-10.51 2.02-10.51 5.04 0 2.88 4.03 3.6 11.38 4.32 17.57 1.73 25.2 8.78 25.2 19.87 0 12.53-12.67 20.59-27.94 20.59-16.42 0-27.79-6.62-27.79-14.83 0-6.62 5.62-10.37 10.37-11.38l7.34 2.59c-2.02 1.01-3.89 3.02-3.89 5.9 0 4.61 6.05 7.06 13.39 7.06 8.35 0 13.39-3.46 13.39-7.92 0-4.61-3.74-7.2-14.4-8.21-12.67-1.01-21.74-4.9-21.74-14.11 0-5.04 4.61-9.94 10.37-11.66-6.34-2.74-11.38-9.22-11.38-17.14 0-10.08 8.93-19.73 23.9-19.73 6.48 0 10.37 1.88 17.86 1.88zM456.32 56.7c0 6.34 3.89 10.22 9.36 10.22 5.33 0 9.36-3.89 9.36-10.22s-4.03-10.22-9.36-10.22c-5.47 0-9.36 3.89-9.36 10.22zM514.64 25.17c-4.75 0-8.64-4.03-8.64-8.78 0-4.75 3.89-8.64 8.64-8.64 4.61 0 8.64 3.89 8.64 8.64 0 4.74-4.03 8.78-8.64 8.78zm-8.06 62.78v-49.1l16.13-1.73v50.83h-16.13zM556.83 89.24c-9.07 0-15.26-5.18-15.26-16.13v-23.9h-7.06V38.85h7.06V25.31l16.13-1.73v15.26h11.95v10.37H557.7v22.03c0 5.33 1.3 7.63 5.62 7.63 2.88 0 5.04-1.15 6.48-2.16l1.58 7.78c-2.88 2.45-8.5 4.75-14.55 4.75zM623.65 89.24c-7.2 0-11.09-3.02-12.24-8.35-5.04 5.47-10.8 8.35-17.57 8.35-7.49 0-13.39-5.33-13.39-12.96 0-11.81 13.39-18.29 30.38-19.73v-1.58c0-5.76-2.74-7.49-8.5-7.49-5.33 0-13.25 3.02-18.43 6.48V42.73c4.18-2.59 14.98-5.76 21.74-5.76 11.81 0 21.17 3.89 21.17 17.57v21.89c0 3.74 1.3 4.75 3.17 4.75 1.15 0 2.16-.29 2.88-.58v6.05c-1.44 1.3-5.61 2.59-9.21 2.59zm-12.82-24.47c-10.37 1.44-15.98 4.32-15.98 9.5 0 3.17 2.45 4.75 5.62 4.75 2.74 0 6.34-1.58 10.37-5.9v-8.35zM658.78 89.24c-8.21 0-12.96-3.74-12.96-12.67V1.55l16.13-1.73v76.61c0 3.74 1.15 4.75 3.02 4.75 1.01 0 2.16-.29 3.02-.58v6.05c-1.57 1.3-5.61 2.59-9.21 2.59z"/></svg>
