<svg xmlns="http://www.w3.org/2000/svg" viewBox="0 0 155 40"><style>.st0{fill:#292220}</style>	<path d="M0,39.08v-28.8h5.86v24.24h12.91v4.56H0z"/> <path class="st0" d="M32.11,39.08v-28.8h5.86v28.8H32.11z"/> <path class="st0" d="M74.21,39.08L59.14,20.07v19.01H53.9v-28.8h4.08l15.07,19.01V10.27h5.23v28.8H74.21z"/> <path class="st0" d="M94.27,39.08v-28.8h18.77v4.56h-12.91v6.77h10.51v4.56h-10.51v8.35h12.91v4.56H94.27z M101.38,7.3l-0.86-1.44L107.57,0 l2.11,3.26L101.38,7.3z"/> <path class="st0" d="M148.51,39.08l-2.93-7.1h-11.67l-2.93,7.1h-5.66l12.24-28.8h4.56l12.24,28.8H148.51z M139.78,17.43l-4.27,10.46h8.5 L139.78,17.43z"/></svg>
